<svg width="71" height="22" viewBox="0 0 71 22" fill="none" xmlns="http://www.w3.org/2000/svg">
    <g clip-path="url(#clip0_1995_891)">
    <path d="M23.426 17.5476V21.7672H20.8943C19.09 21.7672 17.6932 21.3307 16.6747 20.4576C15.6562 19.5846 15.1615 18.1296 15.1615 16.1217V9.66136H13.1826V5.52908H15.1615V1.80422L20.1376 0.232788V5.52908H23.3969V9.66136H20.1376V16.1799C20.1376 16.6746 20.254 17.0238 20.4869 17.2275C20.7197 17.4312 21.098 17.5476 21.6509 17.5476H23.426V17.5476Z" fill="#1C216C"/>
    <path d="M42.3704 9.22485C41.7302 7.97353 40.8863 6.98411 39.8095 6.3148C38.7328 5.64549 37.5106 5.29628 36.172 5.29628C33.9021 5.29628 32.127 6.4312 31.1667 8.29363V0.232788H26.1905V21.7672H31.1667V19.0026C32.127 20.8651 33.9021 22 36.172 22C37.5106 22 38.7328 21.6508 39.8095 20.9815C40.8863 20.283 41.7593 19.3227 42.3704 18.0423C43.0106 16.7619 43.3016 15.3069 43.3016 13.6481C43.3307 11.9603 43.0106 10.4762 42.3704 9.22485ZM37.2196 16.5582C36.5212 17.2857 35.6773 17.664 34.6879 17.664C33.6984 17.664 32.8545 17.3148 32.1852 16.5873C31.4868 15.8598 31.1667 14.8995 31.1667 13.6481C31.1667 12.3968 31.5159 11.4365 32.1852 10.709C32.8836 9.98146 33.6984 9.63226 34.6879 9.63226C35.7064 9.63226 36.5503 9.98146 37.2487 10.709C37.9471 11.4074 38.2963 12.3968 38.2963 13.619C38.2672 14.8704 37.918 15.8307 37.2196 16.5582Z" fill="#1C216C"/>
    <path d="M11.7566 0H6.95503L0 22H4.80159L11.7566 0Z" fill="#1C216C"/>
    <path d="M67.8916 22C69.4988 22 70.8017 20.6972 70.8017 19.09C70.8017 17.4828 69.4988 16.1799 67.8916 16.1799C66.2844 16.1799 64.9816 17.4828 64.9816 19.09C64.9816 20.6972 66.2844 22 67.8916 22Z" fill="#1C216C"/>
    <path d="M55.9312 5.35448C57.7936 5.35448 59.2778 5.96559 60.4127 7.21691C61.5476 8.43913 62.1005 10.127 62.1005 12.2804V21.7672H57.1534V12.9497C57.1534 11.873 56.8624 11.0291 56.3095 10.418C55.7566 9.80686 55 9.51585 54.0397 9.51585C53.0793 9.51585 52.3227 9.80686 51.7698 10.418C51.2169 11.0291 50.9259 11.873 50.9259 12.9497V21.7672H45.9497V0.232788H50.9259V8.35183C51.8862 6.4894 53.6614 5.35448 55.9312 5.35448Z" fill="#1C216C"/>
    </g>
    <defs>
    <clipPath id="clip0_1995_891">
    <rect width="70.8016" height="22" fill="white"/>
    </clipPath>
    </defs>
</svg>
